<svg width="21" height="40" viewBox="0 0 21 40" fill="none" xmlns="http://www.w3.org/2000/svg">
<path d="M20.9 3.34844C20.9 3.84844 20.8333 4.33177 20.7 4.79844C20.5667 5.26511 20.3333 5.68177 20 6.04844C19.8667 6.24844 19.6333 6.51511 19.3 6.84844C18.9667 7.14844 18.5167 7.58177 17.95 8.14844C16.55 9.31511 15.2167 10.5484 13.95 11.8484C12.7167 13.1484 11.5167 14.5151 10.35 15.9484C9.95 16.4151 9.55 16.8984 9.15 17.3984C8.75 17.8984 8.43333 18.4151 8.2 18.9484C7.96667 19.4818 7.85 20.0484 7.85 20.6484C7.88333 21.2484 8.13333 21.8651 8.6 22.4984C9.43333 23.6651 10.3167 24.7818 11.25 25.8484C12.1833 26.9151 13.1833 27.9651 14.25 28.9984C14.8833 29.6651 15.5167 30.3151 16.15 30.9484C16.8167 31.5818 17.45 32.2151 18.05 32.8484C18.85 33.6484 19.3333 34.4984 19.5 35.3984C19.6667 36.2651 19.5833 37.0318 19.25 37.6984C18.9167 38.3651 18.3667 38.8484 17.6 39.1484C16.8667 39.4484 15.9833 39.3984 14.95 38.9984C14.4167 38.7651 13.9 38.4484 13.4 38.0484C12.9 37.6818 12.4167 37.2651 11.95 36.7984C11.4833 36.2984 11.0333 35.7984 10.6 35.2984C10.1667 34.7984 9.76667 34.3318 9.4 33.8984C3.13333 26.9984 0 22.4318 0 20.1984C0 18.4984 1.21667 16.0318 3.65 12.7984C4.58333 11.6318 5.61667 10.4151 6.75 9.14844C7.88333 7.84844 9.15 6.5651 10.55 5.29844C11.4167 4.43177 12.3 3.58177 13.2 2.74844C14.1333 1.88177 15.15 1.14844 16.25 0.548439C16.7167 0.315105 17.2167 0.215104 17.75 0.248437C18.3167 0.248437 18.8333 0.381771 19.3 0.648438C19.7667 0.881772 20.15 1.23177 20.45 1.69844C20.75 2.16511 20.9 2.71511 20.9 3.34844Z" fill="#4857EC"/>
</svg>
