<svg width="22" height="40" viewBox="0 0 22 40" fill="none" xmlns="http://www.w3.org/2000/svg">
<path d="M0.75 35.9929C0.75 35.4929 0.816667 35.0095 0.949999 34.5429C1.08333 34.0762 1.31667 33.6595 1.65 33.2929C1.78333 33.0929 2.01667 32.8262 2.35 32.4929C2.68333 32.1929 3.13333 31.7595 3.7 31.1929C5.1 30.0262 6.43333 28.7929 7.7 27.4929C8.93334 26.1929 10.1333 24.8262 11.3 23.3929C11.7 22.9262 12.1 22.4429 12.5 21.9429C12.9 21.4429 13.2167 20.9262 13.45 20.3929C13.6833 19.8595 13.8 19.2929 13.8 18.6929C13.7667 18.0929 13.5167 17.4762 13.05 16.8429C12.2167 15.6762 11.3333 14.5595 10.4 13.4929C9.46667 12.4262 8.46667 11.3762 7.40001 10.3429C6.76667 9.67619 6.13334 9.02619 5.50001 8.39286C4.83334 7.75952 4.20001 7.12619 3.60001 6.49286C2.80001 5.69286 2.31667 4.84286 2.15001 3.94286C1.98334 3.07619 2.06667 2.30952 2.40001 1.64286C2.73334 0.976191 3.28334 0.492857 4.05001 0.192857C4.78334 -0.107143 5.66668 -0.0571428 6.70001 0.342857C7.23334 0.576191 7.75001 0.892857 8.25001 1.29286C8.75001 1.65952 9.23334 2.07619 9.70001 2.54286C10.1667 3.04286 10.6167 3.54286 11.05 4.04286C11.4833 4.54286 11.8833 5.00952 12.25 5.44286C18.5167 12.3429 21.65 16.9095 21.65 19.1429C21.65 20.8429 20.4333 23.3095 18 26.5429C17.0667 27.7095 16.0333 28.9262 14.9 30.1929C13.7667 31.4929 12.5 32.7762 11.1 34.0429C10.2333 34.9095 9.35 35.7595 8.45 36.5929C7.51667 37.4595 6.5 38.1929 5.4 38.7929C4.93333 39.0262 4.43333 39.1262 3.9 39.0929C3.33333 39.0929 2.81667 38.9595 2.35 38.6929C1.88333 38.4595 1.5 38.1095 1.2 37.6429C0.899999 37.1762 0.75 36.6262 0.75 35.9929Z" fill="#4857EC"/>
</svg>
