<svg width="138" height="102" viewBox="0 0 138 102" fill="none" xmlns="http://www.w3.org/2000/svg">
<g clip-path="url(#clip0_1200_4389)">
<rect width="138" height="102" fill="white"/>
<path d="M0 8.5C0 13.1944 3.80558 17 8.5 17C13.1944 17 17 13.1944 17 8.5C17 3.80558 13.1944 0 8.5 0C3.80558 0 0 3.80558 0 8.5Z" fill="black"/>
<path d="M9.60499 5.78L7.30078 7.91963C6.93862 8.25591 6.93862 8.82909 7.30078 9.16538L9.60499 11.305M8.5 0C3.80558 0 0 3.80558 0 8.5C0 13.1944 3.80558 17 8.5 17C13.1944 17 17 13.1944 17 8.5C17 3.80558 13.1944 0 8.5 0Z" stroke="white" stroke-width="1.5" stroke-linecap="round"/>
<circle cx="33" cy="9" r="6" fill="black"/>
<circle cx="55" cy="9" r="4" stroke="black" stroke-width="4"/>
<path d="M87 8.50001C87 3.80559 83.1944 1.48484e-05 78.5 1.52588e-05C73.8056 1.56692e-05 70 3.8056 70 8.50002C70 13.1944 73.8056 17 78.5 17C83.1944 17 87 13.1944 87 8.50001Z" fill="black"/>
<path d="M77.395 11.22L79.6992 9.08039C80.0614 8.7441 80.0614 8.17093 79.6992 7.83464L77.395 5.69502M78.5 17C83.1944 17 87 13.1944 87 8.50001C87 3.80559 83.1944 1.48484e-05 78.5 1.52588e-05C73.8056 1.56692e-05 70 3.8056 70 8.50002C70 13.1944 73.8056 17 78.5 17Z" stroke="white" stroke-width="1.5" stroke-linecap="round"/>
<path d="M17.3421 31L18 32.4259L1.3545 66.5L18 100.574L17.3421 102L0 66.5L17.3421 31Z" fill="#323232"/>
<path d="M17.3421 31L18 32.4259L1.3545 66.5L18 100.574L17.3421 102L0 66.5L17.3421 31Z" stroke="black"/>
<path d="M31.6579 102L31 100.574L47.6455 66.5L31 32.4259L31.6579 31L49 66.5L31.6579 102Z" fill="#323232"/>
<path d="M31.6579 102L31 100.574L47.6455 66.5L31 32.4259L31.6579 31L49 66.5L31.6579 102Z" stroke="black"/>
</g>
<defs>
<clipPath id="clip0_1200_4389">
<rect width="138" height="102" fill="white"/>
</clipPath>
</defs>
</svg>
